<svg width="21" height="21" viewBox="0 0 21 21" fill="none" xmlns="http://www.w3.org/2000/svg">
<path fill-rule="evenodd" clip-rule="evenodd" d="M12.6196 0.926038C13.0051 0.648954 13.5467 0.519788 14.079 0.714579C15.2107 1.12914 16.2617 1.73714 17.1853 2.51145C17.6196 2.87604 17.779 3.40833 17.7311 3.87916C17.653 4.66354 17.7905 5.42083 18.1686 6.07291C18.5019 6.65312 19.004 7.11145 19.6165 7.43437L19.8509 7.54895C20.2822 7.74375 20.6655 8.14895 20.7624 8.70833C20.9681 9.89392 20.9681 11.1061 20.7624 12.2917C20.6759 12.7958 20.3561 13.174 19.978 13.3865L19.8509 13.4521C19.1322 13.775 18.5446 14.275 18.1676 14.9271C17.7905 15.5802 17.653 16.3365 17.7311 17.1208C17.778 17.5917 17.6196 18.125 17.1853 18.4885C16.2617 19.2629 15.2107 19.8708 14.079 20.2854C13.8372 20.3719 13.5778 20.3979 13.3236 20.361C13.0693 20.3242 12.828 20.2256 12.6207 20.074C11.979 19.6146 11.253 19.3542 10.4999 19.3542C9.74673 19.3542 9.02069 19.6135 8.38006 20.074C8.17261 20.2258 7.93111 20.3244 7.67669 20.3613C7.42228 20.3982 7.1627 20.3721 6.92069 20.2854C5.78902 19.8709 4.73798 19.2629 3.81444 18.4885C3.61883 18.3223 3.46684 18.1108 3.3717 17.8725C3.27657 17.6341 3.24117 17.376 3.26861 17.1208C3.34673 16.3365 3.20819 15.5792 2.83111 14.9271C2.48766 14.3449 1.98541 13.8726 1.38319 13.5656L1.14881 13.451C0.913757 13.3469 0.707783 13.1868 0.548895 12.9847C0.390007 12.7826 0.283044 12.5447 0.237355 12.2917C0.0315588 11.1061 0.0315588 9.89391 0.237355 8.70833C0.323813 8.20416 0.643605 7.82604 1.02173 7.61354L1.14881 7.54895C1.86756 7.225 2.45506 6.72604 2.83215 6.07291C3.20819 5.42083 3.34673 4.66354 3.26861 3.87916C3.24117 3.62396 3.27657 3.36592 3.3717 3.12754C3.46684 2.88915 3.61883 2.67764 3.81444 2.51145C4.73799 1.73714 5.78903 1.12914 6.92069 0.714579C7.16257 0.628156 7.42193 0.602243 7.67613 0.639102C7.93033 0.675961 8.17165 0.774472 8.37902 0.926038C9.01965 1.38645 9.74569 1.64583 10.4999 1.64583C11.254 1.64583 11.979 1.38645 12.6196 0.926038ZM13.6165 2.76875C12.7144 3.3625 11.6509 3.72916 10.4999 3.72916C9.34881 3.72916 8.28527 3.36145 7.38319 2.76875C6.65802 3.06146 5.97771 3.45491 5.36236 3.9375C5.42486 5.01354 5.21131 6.1177 4.63631 7.11458C4.06027 8.11041 3.21131 8.84687 2.24777 9.33125C2.13922 10.1059 2.13922 10.892 2.24777 11.6667C3.21131 12.151 4.06027 12.8875 4.63631 13.8854C5.21131 14.8802 5.42486 15.9844 5.36236 17.0604C5.97765 17.5434 6.65796 17.9372 7.38319 18.2302C8.28527 17.6365 9.34881 17.2698 10.4999 17.2698C11.6509 17.2698 12.7144 17.6375 13.6165 18.2302C14.3417 17.9375 15.022 17.544 15.6374 17.0615C15.5749 15.9844 15.7884 14.8802 16.3634 13.8844C16.9384 12.8875 17.7884 12.151 18.7519 11.6656C18.8605 10.8916 18.8605 10.1063 18.7519 9.33229C17.7884 8.84687 16.9394 8.11041 16.3634 7.11354C15.7884 6.1177 15.5749 5.01354 15.6374 3.93645C15.022 3.45387 14.3417 3.06146 13.6165 2.76875ZM10.4999 6.33333C11.6049 6.33333 12.6647 6.77232 13.4461 7.55372C14.2275 8.33512 14.6665 9.39493 14.6665 10.5C14.6665 11.6051 14.2275 12.6649 13.4461 13.4463C12.6647 14.2277 11.6049 14.6667 10.4999 14.6667C9.39479 14.6667 8.33498 14.2277 7.55358 13.4463C6.77218 12.6649 6.33319 11.6051 6.33319 10.5C6.33319 9.39493 6.77218 8.33512 7.55358 7.55372C8.33498 6.77232 9.39479 6.33333 10.4999 6.33333ZM10.4999 8.41666C10.2263 8.41666 9.95536 8.47055 9.7026 8.57525C9.44984 8.67994 9.22017 8.8334 9.02672 9.02686C8.83326 9.22031 8.6798 9.44998 8.57511 9.70274C8.47041 9.9555 8.41652 10.2264 8.41652 10.5C8.41652 10.7736 8.47041 11.0445 8.57511 11.2973C8.6798 11.55 8.83326 11.7797 9.02672 11.9731C9.22017 12.1666 9.44984 12.32 9.7026 12.4247C9.95536 12.5294 10.2263 12.5833 10.4999 12.5833C11.0524 12.5833 11.5823 12.3638 11.973 11.9731C12.3637 11.5824 12.5832 11.0525 12.5832 10.5C12.5832 9.94746 12.3637 9.41756 11.973 9.02686C11.5823 8.63616 11.0524 8.41666 10.4999 8.41666Z" fill="black"/>
</svg>
