<svg width="25" height="24" viewBox="0 0 25 24" fill="none" xmlns="http://www.w3.org/2000/svg">
<path fill-rule="evenodd" clip-rule="evenodd" d="M15.0437 0.370261C15.5062 0.0336599 16.1562 -0.123252 16.795 0.113381C18.1529 0.616994 19.4142 1.35559 20.5224 2.29623C21.0436 2.73912 21.2349 3.38575 21.1774 3.95772C21.0836 4.91058 21.2486 5.83054 21.7024 6.62269C22.1024 7.32753 22.7049 7.88432 23.4399 8.2766L23.7211 8.41579C24.2386 8.65243 24.6986 9.14467 24.8148 9.8242C25.0617 11.2645 25.0617 12.737 24.8148 14.1772C24.7111 14.7897 24.3274 15.2491 23.8736 15.5072L23.7211 15.5869C22.8586 15.9792 22.1536 16.5866 21.7011 17.3788C21.2486 18.1722 21.0836 19.0909 21.1774 20.0437C21.2336 20.6157 21.0436 21.2636 20.5224 21.7052C19.4142 22.6459 18.1529 23.3845 16.795 23.8881C16.5047 23.9932 16.1935 24.0247 15.8884 23.9799C15.5834 23.9351 15.2938 23.8154 15.045 23.6312C14.275 23.0731 13.4038 22.7568 12.5 22.7568C11.5963 22.7568 10.7251 23.0719 9.95632 23.6312C9.70738 23.8156 9.41758 23.9355 9.11228 23.9803C8.80699 24.025 8.4955 23.9934 8.20509 23.8881C6.84711 23.3845 5.58588 22.6459 4.47765 21.7052C4.24293 21.5033 4.06054 21.2464 3.94638 20.9568C3.83221 20.6672 3.78974 20.3537 3.82266 20.0437C3.91641 19.0909 3.75016 18.1709 3.29767 17.3788C2.88554 16.6715 2.28285 16.0978 1.56019 15.7248L1.27895 15.5857C0.996884 15.4592 0.749718 15.2647 0.559056 15.0192C0.368394 14.7736 0.24004 14.4846 0.185214 14.1772C-0.0617379 12.737 -0.0617379 11.2644 0.185214 9.8242C0.288962 9.21174 0.672706 8.75239 1.12645 8.49425L1.27895 8.41579C2.14143 8.02225 2.84642 7.41611 3.29892 6.62269C3.75016 5.83054 3.91641 4.91058 3.82266 3.95772C3.78974 3.6477 3.83221 3.33424 3.94638 3.04465C4.06054 2.75505 4.24293 2.49812 4.47765 2.29623C5.58589 1.35559 6.84712 0.616994 8.20509 0.113381C8.49535 0.00839356 8.80657 -0.0230856 9.11161 0.0216908C9.41664 0.0664673 9.70622 0.186139 9.95507 0.370261C10.7238 0.929576 11.595 1.24467 12.5 1.24467C13.405 1.24467 14.275 0.929576 15.0437 0.370261ZM16.24 2.60879C15.1575 3.33008 13.8813 3.7755 12.5 3.7755C11.1188 3.7755 9.84257 3.32881 8.76008 2.60879C7.88989 2.96437 7.07354 3.44234 6.33512 4.02859C6.41012 5.33576 6.15387 6.67711 5.46388 7.88811C4.77264 9.09785 3.75391 9.9925 2.59768 10.5809C2.46741 11.522 2.46741 12.4769 2.59768 13.418C3.75391 14.0064 4.77264 14.9011 5.46388 16.1133C6.15387 17.3218 6.41012 18.6632 6.33512 19.9703C7.07346 20.557 7.88982 21.0354 8.76008 21.3914C9.84257 20.6701 11.1188 20.2247 12.5 20.2247C13.8813 20.2247 15.1575 20.6714 16.24 21.3914C17.1101 21.0358 17.9265 20.5578 18.6649 19.9716C18.5899 18.6632 18.8462 17.3218 19.5362 16.1121C20.2262 14.9011 21.2461 14.0064 22.4024 13.4167C22.5326 12.4765 22.5326 11.5224 22.4024 10.5822C21.2461 9.9925 20.2274 9.09785 19.5362 7.88685C18.8462 6.67711 18.5899 5.33576 18.6649 4.02732C17.9265 3.44107 17.1102 2.96437 16.24 2.60879ZM12.5 6.93905C13.8261 6.93905 15.0978 7.47233 16.0355 8.42158C16.9732 9.37083 17.5 10.6583 17.5 12.0007C17.5 13.3432 16.9732 14.6306 16.0355 15.5799C15.0978 16.5291 13.8261 17.0624 12.5 17.0624C11.174 17.0624 9.90221 16.5291 8.96455 15.5799C8.02688 14.6306 7.5001 13.3432 7.5001 12.0007C7.5001 10.6583 8.02688 9.37083 8.96455 8.42158C9.90221 7.47233 11.174 6.93905 12.5 6.93905ZM12.5 9.46989C12.1717 9.46989 11.8466 9.53535 11.5433 9.66253C11.24 9.78972 10.9644 9.97614 10.7323 10.2112C10.5001 10.4462 10.316 10.7252 10.1904 11.0322C10.0647 11.3393 10.0001 11.6684 10.0001 12.0007C10.0001 12.3331 10.0647 12.6622 10.1904 12.9692C10.316 13.2763 10.5001 13.5553 10.7323 13.7903C10.9644 14.0253 11.24 14.2117 11.5433 14.3389C11.8466 14.4661 12.1717 14.5316 12.5 14.5316C13.1631 14.5316 13.7989 14.2649 14.2678 13.7903C14.7366 13.3157 15 12.6719 15 12.0007C15 11.3295 14.7366 10.6858 14.2678 10.2112C13.7989 9.73653 13.1631 9.46989 12.5 9.46989Z" fill="black"/>
</svg>
