<svg width="25" height="25" viewBox="0 0 25 25" fill="none" xmlns="http://www.w3.org/2000/svg">
<path d="M5.46875 22.6563C4.85068 22.6563 4.2465 22.473 3.73259 22.1296C3.21869 21.7862 2.81815 21.2982 2.58163 20.7271C2.3451 20.1561 2.28322 19.5278 2.4038 18.9216C2.52438 18.3154 2.822 17.7586 3.25904 17.3215C3.69608 16.8845 4.2529 16.5869 4.85909 16.4663C5.46528 16.3457 6.09362 16.4076 6.66464 16.6441C7.23566 16.8807 7.72371 17.2812 8.06709 17.7951C8.41047 18.309 8.59375 18.9132 8.59375 19.5313C8.59375 20.3601 8.26451 21.1549 7.67846 21.741C7.09241 22.327 6.29755 22.6563 5.46875 22.6563ZM5.46875 17.9688C5.15972 17.9688 4.85762 18.0604 4.60067 18.2321C4.34372 18.4038 4.14345 18.6478 4.02519 18.9333C3.90693 19.2188 3.87598 19.533 3.93627 19.8361C3.99656 20.1392 4.14538 20.4176 4.3639 20.6361C4.58242 20.8546 4.86083 21.0034 5.16392 21.0637C5.46702 21.124 5.78118 21.0931 6.06669 20.9748C6.3522 20.8566 6.59623 20.6563 6.76792 20.3993C6.93961 20.1424 7.03125 19.8403 7.03125 19.5313C7.03125 19.1169 6.86663 18.7194 6.57361 18.4264C6.28058 18.1334 5.88315 17.9688 5.46875 17.9688Z" fill="black"/>
<path d="M19.5313 15.625C18.9132 15.625 18.309 15.4417 17.7951 15.0983C17.2812 14.755 16.8807 14.2669 16.6441 13.6959C16.4076 13.1249 16.3457 12.4965 16.4663 11.8903C16.5869 11.2842 16.8845 10.7273 17.3215 10.2903C17.7586 9.85325 18.3154 9.55563 18.9216 9.43505C19.5278 9.31447 20.1561 9.37635 20.7271 9.61288C21.2982 9.8494 21.7862 10.2499 22.1296 10.7638C22.473 11.2777 22.6563 11.8819 22.6563 12.5C22.6563 13.3288 22.327 14.1237 21.741 14.7097C21.1549 15.2958 20.3601 15.625 19.5313 15.625ZM19.5313 10.9375C19.2222 10.9375 18.9201 11.0291 18.6632 11.2008C18.4062 11.3725 18.206 11.6165 18.0877 11.9021C17.9694 12.1876 17.9385 12.5017 17.9988 12.8048C18.0591 13.1079 18.2079 13.3863 18.4264 13.6049C18.6449 13.8234 18.9233 13.9722 19.2264 14.0325C19.5295 14.0928 19.8437 14.0618 20.1292 13.9436C20.4147 13.8253 20.6587 13.625 20.8304 13.3681C21.0021 13.1111 21.0938 12.809 21.0938 12.5C21.0938 12.0856 20.9291 11.6882 20.6361 11.3951C20.3431 11.1021 19.9457 10.9375 19.5313 10.9375Z" fill="black"/>
<path d="M3.125 11.7188H13.2812V13.2812H3.125V11.7188Z" fill="black"/>
<path d="M11.7188 18.75H21.875V20.3125H11.7188V18.75Z" fill="black"/>
<path d="M11.7188 4.6875H21.875V6.25H11.7188V4.6875Z" fill="black"/>
<path d="M5.46875 8.59375C4.85068 8.59375 4.2465 8.41047 3.73259 8.06709C3.21869 7.72371 2.81815 7.23566 2.58163 6.66464C2.3451 6.09362 2.28322 5.46528 2.4038 4.85909C2.52438 4.2529 2.822 3.69608 3.25904 3.25904C3.69608 2.822 4.2529 2.52438 4.85909 2.4038C5.46528 2.28322 6.09362 2.3451 6.66464 2.58163C7.23566 2.81815 7.72371 3.21869 8.06709 3.73259C8.41047 4.2465 8.59375 4.85068 8.59375 5.46875C8.59375 6.29755 8.26451 7.09241 7.67846 7.67846C7.09241 8.26451 6.29755 8.59375 5.46875 8.59375ZM5.46875 3.90625C5.15972 3.90625 4.85762 3.99789 4.60067 4.16958C4.34372 4.34127 4.14345 4.5853 4.02519 4.87081C3.90693 5.15632 3.87598 5.47048 3.93627 5.77358C3.99656 6.07668 4.14538 6.35509 4.3639 6.57361C4.58242 6.79213 4.86083 6.94094 5.16392 7.00123C5.46702 7.06152 5.78118 7.03058 6.06669 6.91231C6.3522 6.79405 6.59623 6.59378 6.76792 6.33683C6.93961 6.07988 7.03125 5.77778 7.03125 5.46875C7.03125 5.05435 6.86663 4.65692 6.57361 4.3639C6.28058 4.07087 5.88315 3.90625 5.46875 3.90625Z" fill="black"/>
</svg>
