<svg width="24" height="26" viewBox="0 0 24 26" fill="none" xmlns="http://www.w3.org/2000/svg">
<path d="M8.29748 1H4.66667C3.69421 1 2.76157 1.31607 2.07394 1.87868C1.38631 2.44129 1 3.20435 1 4V22C1 22.7957 1.38631 23.5587 2.07394 24.1213C2.76157 24.6839 3.69421 25 4.66667 25H19.3333C20.3058 25 21.2384 24.6839 21.9261 24.1213C22.6137 23.5587 23 22.7957 23 22V13M8.29748 1C10.3231 1 12 2.34267 12 4V7C12 7.39397 12.0948 7.78407 12.2791 8.14805C12.4634 8.51203 12.7335 8.84275 13.0739 9.12132C13.7616 9.68393 14.6942 10 15.6667 10H19.3333C20.3058 10 21.2384 10.3161 21.9261 10.8787C22.6137 11.4413 23 12.2044 23 13M8.29748 1C14.3108 1 23 8.14667 23 13" stroke="black" stroke-linecap="round" stroke-linejoin="round"/>
</svg>
