<svg width="30" height="20" viewBox="0 0 30 20" fill="none" xmlns="http://www.w3.org/2000/svg">
<path d="M0 1.66667C0 0.744792 0.930382 0 2.08197 0H27.0657C28.2173 0 29.1476 0.744792 29.1476 1.66667C29.1476 2.58854 28.2173 3.33333 27.0657 3.33333H2.08197C0.930382 3.33333 0 2.58854 0 1.66667ZM0 10C0 9.07812 0.930382 8.33333 2.08197 8.33333H27.0657C28.2173 8.33333 29.1476 9.07812 29.1476 10C29.1476 10.9219 28.2173 11.6667 27.0657 11.6667H2.08197C0.930382 11.6667 0 10.9219 0 10ZM29.1476 18.3333C29.1476 19.2552 28.2173 20 27.0657 20H2.08197C0.930382 20 0 19.2552 0 18.3333C0 17.4115 0.930382 16.6667 2.08197 16.6667H27.0657C28.2173 16.6667 29.1476 17.4115 29.1476 18.3333Z" fill="white"/>
</svg>
