<svg width="22" height="22" viewBox="0 0 22 22" fill="none" xmlns="http://www.w3.org/2000/svg">
<path d="M15.0534 1.59991C14.0242 0.568193 12.5868 0 11.0004 0C9.40538 0 7.96328 0.564732 6.93896 1.59009C5.90351 2.62672 5.399 4.03558 5.51746 5.55697C5.75221 8.5584 8.21183 11 11.0004 11C13.7888 11 16.2442 8.55887 16.4828 5.55795C16.6028 4.05036 16.0951 2.6444 15.0534 1.59991Z" fill="black"/>
<path d="M20.3074 21.9999H1.69256C1.4489 22.0029 1.2076 21.9553 0.986246 21.8608C0.764842 21.7662 0.568973 21.627 0.412791 21.4533C0.0690506 21.0718 -0.0695033 20.5508 0.03309 20.0239C0.479424 17.7247 1.87237 15.7932 4.06178 14.4374C6.00682 13.2338 8.47062 12.5714 11 12.5714C13.5294 12.5714 15.9932 13.2343 17.9383 14.4374C20.1276 15.7928 21.5206 17.7241 21.9669 20.0234C22.0695 20.5503 21.931 21.0713 21.5872 21.4529C21.4311 21.6267 21.2352 21.7659 21.0139 21.8606C20.7924 21.9552 20.5512 22.0028 20.3074 21.9999Z" fill="black"/>
</svg>
