<svg width="24" height="26" viewBox="0 0 24 26" fill="none" xmlns="http://www.w3.org/2000/svg">
<path d="M9.42857 1.625H14.5714C14.7988 1.625 15.0168 1.7106 15.1775 1.86298C15.3383 2.01535 15.4286 2.22201 15.4286 2.4375V4.0625H8.57143V2.4375C8.57143 2.22201 8.66173 2.01535 8.82248 1.86298C8.98323 1.7106 9.20124 1.625 9.42857 1.625ZM17.1429 4.0625V2.4375C17.1429 1.79103 16.8719 1.17105 16.3897 0.713927C15.9075 0.256807 15.2534 0 14.5714 0L9.42857 0C8.74659 0 8.09253 0.256807 7.6103 0.713927C7.12806 1.17105 6.85714 1.79103 6.85714 2.4375V4.0625H0.857143C0.629814 4.0625 0.411797 4.1481 0.251051 4.30048C0.0903058 4.45285 0 4.65951 0 4.875C0 5.09049 0.0903058 5.29715 0.251051 5.44952C0.411797 5.6019 0.629814 5.6875 0.857143 5.6875H1.77943L3.24171 23.01C3.31067 23.8244 3.70072 24.5844 4.33419 25.1385C4.96765 25.6926 5.79805 26.0002 6.66 26H17.34C18.202 26.0002 19.0324 25.6926 19.6658 25.1385C20.2993 24.5844 20.6893 23.8244 20.7583 23.01L22.2206 5.6875H23.1429C23.3702 5.6875 23.5882 5.6019 23.7489 5.44952C23.9097 5.29715 24 5.09049 24 4.875C24 4.65951 23.9097 4.45285 23.7489 4.30048C23.5882 4.1481 23.3702 4.0625 23.1429 4.0625H17.1429ZM20.4994 5.6875L19.0491 22.88C19.0147 23.2872 18.8196 23.6672 18.5029 23.9442C18.1862 24.2213 17.771 24.3751 17.34 24.375H6.66C6.22902 24.3751 5.81382 24.2213 5.49709 23.9442C5.18036 23.6672 4.98534 23.2872 4.95086 22.88L3.50057 5.6875H20.4994ZM7.66457 7.3125C7.89143 7.30007 8.11421 7.37354 8.28394 7.51676C8.45367 7.65997 8.55646 7.86122 8.56971 8.07625L9.42686 21.8888C9.43586 22.1013 9.3566 22.3087 9.20609 22.4664C9.05557 22.6241 8.84581 22.7196 8.62184 22.7324C8.39787 22.7452 8.17755 22.6742 8.00819 22.5347C7.83882 22.3952 7.73392 22.1983 7.716 21.9862L6.85714 8.17375C6.85018 8.06701 6.86552 7.96001 6.90228 7.85891C6.93904 7.7578 6.99649 7.66456 7.07135 7.58454C7.1462 7.50453 7.23699 7.43931 7.33849 7.39263C7.44 7.34594 7.55023 7.31871 7.66286 7.3125H7.66457ZM16.3354 7.3125C16.4481 7.31871 16.5583 7.34594 16.6598 7.39263C16.7613 7.43931 16.8521 7.50453 16.9269 7.58454C17.0018 7.66456 17.0592 7.7578 17.096 7.85891C17.1328 7.96001 17.1481 8.06701 17.1411 8.17375L16.284 21.9862C16.2794 22.0942 16.2522 22.2002 16.2038 22.2981C16.1555 22.396 16.0871 22.4837 16.0025 22.5562C15.918 22.6287 15.819 22.6845 15.7115 22.7203C15.6039 22.7561 15.4899 22.7712 15.3761 22.7647C15.2623 22.7582 15.151 22.7303 15.0488 22.6825C14.9465 22.6348 14.8553 22.5681 14.7806 22.4866C14.7058 22.405 14.6489 22.3101 14.6133 22.2075C14.5777 22.1048 14.564 21.9965 14.5731 21.8888L15.4303 8.07625C15.4435 7.86122 15.5463 7.65997 15.7161 7.51676C15.8858 7.37354 16.1086 7.30007 16.3354 7.3125ZM12 7.3125C12.2273 7.3125 12.4453 7.3981 12.6061 7.55048C12.7668 7.70285 12.8571 7.90951 12.8571 8.125V21.9375C12.8571 22.153 12.7668 22.3597 12.6061 22.512C12.4453 22.6644 12.2273 22.75 12 22.75C11.7727 22.75 11.5547 22.6644 11.3939 22.512C11.2332 22.3597 11.1429 22.153 11.1429 21.9375V8.125C11.1429 7.90951 11.2332 7.70285 11.3939 7.55048C11.5547 7.3981 11.7727 7.3125 12 7.3125Z" fill="black"/>
</svg>
